<?xml version="1.0" standalone="no"?>
<!DOCTYPE svg PUBLIC "-//W3C//DTD SVG 20010904//EN"
 "http://www.w3.org/TR/2001/REC-SVG-20010904/DTD/svg10.dtd">
<svg version="1.0" xmlns="http://www.w3.org/2000/svg"
 width="600.000000pt" height="119.000000pt" viewBox="0 0 600.000000 119.000000"
 preserveAspectRatio="xMidYMid meet">
<g transform="translate(0.000000,119.000000) scale(0.100000,-0.100000)"
fill="#ffffff" stroke="none">
<path d="M2403 1165 c0 -8 4 -12 9 -9 5 3 6 10 3 15 -9 13 -12 11 -12 -6z"/>
<path d="M20 580 l0 -570 33 0 c29 0 60 28 317 285 l285 285 -285 285 c-257
257 -288 285 -317 285 l-33 0 0 -570z m75 522 c11 -6 16 -12 12 -12 -5 0 104
-112 242 -249 138 -137 251 -257 251 -265 0 -18 -152 -176 -169 -176 -6 0 -10
-4 -9 -8 4 -12 -342 -352 -358 -352 -12 0 -14 79 -14 539 0 571 -2 551 45 523z"/>
<path d="M136 878 c-14 -19 -16 -65 -16 -298 0 -217 3 -280 14 -295 13 -18 51
-32 40 -14 -5 8 10 13 29 10 5 -1 6 2 3 7 -2 4 11 21 31 38 20 16 46 40 57 54
12 13 54 56 94 95 41 38 78 78 83 87 13 23 -13 62 -65 99 -21 16 -35 29 -31
29 4 0 -5 11 -21 25 -16 14 -33 25 -37 25 -5 0 -5 5 -2 10 3 6 -1 10 -9 10 -9
0 -16 4 -16 9 0 12 -92 106 -117 120 -19 9 -24 8 -37 -11z m167 -155 l147
-148 -150 -150 -150 -150 0 298 c0 163 1 297 3 297 1 0 69 -66 150 -147z"/>
<path d="M882 970 l-173 -176 108 -107 108 -106 -110 -111 -110 -110 175 -175
c164 -165 177 -175 212 -175 l38 0 0 68 0 68 -109 108 -110 108 108 108 107
109 -108 108 -108 108 110 110 110 110 0 68 0 67 -37 -1 c-35 -2 -51 -15 -211
-179z m210 93 c-4 -48 -8 -55 -57 -102 -30 -28 -51 -51 -47 -51 10 0 -59 -60
-70 -60 -5 0 -7 -4 -4 -9 4 -5 1 -11 -6 -13 -21 -7 -17 -58 7 -76 12 -9 23
-21 25 -27 1 -5 15 -19 30 -30 30 -22 91 -85 83 -85 -3 0 3 -8 14 -17 10 -10
13 -14 6 -9 -10 6 -12 5 -8 -6 4 -9 -28 -49 -85 -107 -66 -68 -90 -99 -88
-115 3 -25 78 -107 90 -100 4 3 8 -2 8 -11 0 -10 5 -13 12 -9 6 4 8 3 5 -3 -3
-5 14 -28 38 -50 39 -38 43 -46 47 -96 2 -45 0 -53 -12 -49 -8 3 -86 77 -174
164 -155 154 -158 159 -141 178 10 11 22 17 28 13 5 -3 7 -1 4 4 -4 6 26 44
67 86 83 85 90 98 70 124 -9 10 -12 12 -8 4 5 -9 3 -12 -5 -7 -6 4 -9 11 -6
16 3 5 -5 17 -18 27 -13 10 -25 23 -27 28 -2 6 -24 27 -49 48 -25 21 -45 42
-43 47 1 6 -3 9 -9 8 -6 -2 -12 7 -14 19 -1 12 3 21 9 20 6 -1 10 4 8 11 -1 8
1 11 6 8 12 -7 63 50 54 59 -4 4 -2 5 3 3 14 -4 86 68 77 77 -4 3 0 5 8 3 9
-2 14 3 12 12 -2 8 -1 12 3 8 9 -9 66 42 59 54 -3 5 -2 7 3 6 5 -2 19 7 33 20
13 12 28 22 32 22 5 0 7 4 4 8 -2 4 3 8 12 8 14 0 16 -9 14 -53z"/>
<path d="M1450 943 l0 -208 -93 93 c-81 81 -97 92 -128 92 l-35 0 2 -72 2 -72
126 -123 126 -122 0 -260 0 -261 68 0 67 0 -3 202 c-1 112 1 198 5 192 5 -7
46 -53 93 -103 75 -82 88 -91 120 -91 l35 0 -2 72 -2 71 -126 127 -126 126 3
272 3 272 -67 0 -68 0 0 -207z m100 -72 c0 -130 4 -251 10 -270 5 -19 25 -49
45 -66 19 -18 35 -31 35 -29 0 10 75 -80 75 -90 1 -6 6 -10 12 -9 7 2 25 -11
42 -27 16 -17 27 -30 23 -30 -3 0 -1 -5 5 -11 11 -11 7 -77 -6 -91 -3 -4 -48
33 -100 82 -51 50 -97 90 -101 90 -27 0 -34 -39 -38 -198 -2 -92 -4 -171 -6
-176 -3 -12 -56 -17 -56 -5 0 6 -3 8 -7 6 -5 -3 -8 104 -8 236 0 197 -3 247
-15 267 -8 14 -59 68 -112 121 -53 54 -94 100 -91 103 4 3 -1 6 -9 6 -12 0
-17 13 -20 55 -4 72 8 72 86 -6 33 -34 71 -68 83 -76 13 -9 21 -19 18 -23 -12
-19 29 -19 46 1 16 19 18 39 16 204 -2 154 0 182 12 177 9 -3 12 -1 7 6 -5 8
1 8 24 1 l30 -11 0 -237z"/>
<path d="M1900 580 l0 -570 70 0 70 0 0 263 0 262 85 85 85 85 85 -85 85 -85
0 -262 0 -263 70 0 70 0 0 570 0 570 -37 0 c-33 0 -46 -10 -154 -122 l-118
-123 -123 123 c-107 106 -128 122 -156 122 l-32 0 0 -570z m124 475 c34 -33
60 -63 58 -67 -2 -5 4 -8 13 -8 9 0 13 -4 10 -10 -3 -5 -1 -10 4 -10 6 0 27
-17 46 -38 19 -21 42 -39 51 -39 9 0 65 49 125 108 59 59 117 113 128 119 l21
11 2 -526 c0 -289 1 -531 2 -537 1 -8 -14 -14 -36 -16 l-38 -3 0 250 0 250
-95 96 c-52 52 -100 95 -105 95 -13 0 -80 -52 -80 -62 0 -3 -16 -22 -35 -41
-19 -19 -35 -33 -35 -30 0 3 -7 0 -15 -7 -9 -7 -13 -15 -11 -18 3 -2 -1 -11
-9 -18 -20 -20 -27 -117 -23 -327 l3 -187 -37 0 -38 0 0 533 c0 294 3 536 6
540 12 11 26 2 88 -58z"/>
<path d="M2335 865 c-46 -43 -52 -75 -19 -104 13 -11 24 -25 24 -30 0 -17 39
-19 54 -2 24 26 22 133 -3 155 -18 16 -20 15 -56 -19z m45 -62 l0 -67 -35 34
-35 34 32 33 c18 18 33 33 35 33 2 0 3 -30 3 -67z"/>
<path d="M2024 882 c-6 -4 -10 -24 -10 -44 1 -21 -2 -38 -6 -38 -4 0 -4 -10
-1 -22 2 -13 5 -31 4 -42 0 -10 3 -16 6 -12 3 3 12 1 19 -5 9 -7 23 1 53 33
23 23 41 47 41 54 0 19 -62 84 -79 84 -9 0 -21 -4 -27 -8z m53 -44 l33 -32
-32 -33 c-18 -18 -34 -33 -37 -33 -4 0 -6 29 -6 65 0 36 2 65 5 65 2 0 19 -14
37 -32z"/>
<path d="M2610 580 l0 -570 68 0 67 0 -3 242 -3 243 106 -105 105 -105 0 -137
0 -138 70 0 70 0 0 363 0 362 -208 208 c-184 184 -211 207 -240 207 l-32 0 0
-570z m95 507 c8 -8 11 -17 8 -21 -4 -3 1 -6 10 -6 10 0 17 -4 17 -9 0 -5 6
-16 14 -23 181 -174 225 -221 220 -231 -4 -7 -4 -9 1 -5 4 4 23 -6 42 -22 l34
-30 -1 -340 c0 -187 0 -344 0 -350 0 -5 -16 -10 -35 -10 l-35 0 0 126 0 126
-112 112 c-61 61 -107 104 -103 96 7 -13 6 -13 -7 -2 -31 25 -36 -8 -40 -235
l-3 -223 -40 0 -40 0 0 539 0 538 28 -8 c15 -4 34 -14 42 -22z"/>
<path d="M2733 885 c-9 -9 -13 -47 -13 -109 l0 -96 43 -45 c24 -25 41 -48 38
-51 -3 -3 1 -4 9 -2 9 2 14 -3 12 -12 -2 -8 -1 -12 2 -9 3 3 32 -18 63 -47 53
-50 58 -52 75 -37 15 13 18 32 18 108 l0 92 -72 74 c-39 41 -71 78 -70 82 2 5
-1 6 -6 3 -5 -3 -23 11 -41 29 -36 39 -41 40 -58 20z m116 -112 l99 -98 4 -93
c1 -50 1 -92 -2 -92 -3 0 -51 46 -108 103 l-102 102 2 88 c1 48 3 87 5 87 2 0
48 -44 102 -97z"/>
<path d="M3180 581 l0 -571 71 0 70 0 -3 170 c-2 94 -3 170 -2 170 0 0 60 -60
133 -134 119 -120 137 -134 172 -138 l39 -4 0 71 0 71 -125 124 -126 124 131
131 130 131 -210 209 c-184 184 -215 210 -245 213 l-35 3 0 -570z m94 497 c16
-18 25 -26 20 -18 -4 8 27 -22 70 -67 44 -45 83 -80 89 -76 6 3 7 1 3 -5 -4
-7 -2 -12 4 -12 6 0 8 -4 5 -10 -3 -5 -2 -10 3 -10 5 0 43 -34 85 -75 l76 -76
-49 -49 c-27 -28 -48 -50 -45 -50 2 0 -6 -11 -18 -23 -12 -13 -24 -24 -27 -23
-10 0 -80 -73 -80 -83 0 -6 -4 -11 -10 -11 -16 0 -12 -32 8 -53 11 -13 12 -17
3 -12 -8 5 21 -27 65 -71 43 -44 83 -78 88 -76 5 3 6 0 2 -6 -4 -6 8 -21 26
-34 39 -27 44 -42 39 -110 -2 -36 -32 -16 -146 97 -64 63 -121 115 -126 115
-6 0 -8 4 -5 8 2 4 -4 13 -15 20 -16 10 -21 10 -25 -3 -3 -8 -10 -12 -15 -9
-5 3 -9 -38 -9 -94 0 -54 -3 -127 -6 -161 l-7 -61 -33 0 -34 0 -2 539 c-3 534
-3 539 17 535 11 -2 33 -18 49 -36z"/>
<path d="M3294 865 c-3 -14 -4 -34 -1 -45 3 -11 1 -18 -4 -14 -13 7 -11 -162
2 -208 14 -54 41 -50 100 12 26 28 52 50 59 50 6 0 9 4 5 9 -3 5 3 16 12 23
32 24 27 48 -21 93 -25 23 -43 45 -39 49 3 3 1 6 -6 6 -7 0 -22 11 -33 25 -26
34 -65 34 -74 0z m103 -67 l73 -73 -76 -72 c-42 -40 -77 -73 -78 -73 0 0 -1
65 -1 145 0 80 2 145 5 145 2 0 37 -33 77 -72z"/>
<path d="M3730 580 l0 -570 68 0 67 0 -3 205 c-1 113 -1 205 1 205 2 0 70 -67
152 -150 132 -133 153 -150 182 -150 l33 0 0 70 0 70 -160 162 -160 162 160
161 160 160 0 68 0 67 -32 0 c-29 0 -52 -19 -186 -152 l-153 -153 3 208 3 207
-67 0 -68 0 0 -570z m100 355 c0 -124 4 -185 11 -185 5 0 8 -4 4 -9 -3 -5 4
-13 16 -16 18 -6 34 5 91 64 37 39 73 71 80 71 6 0 9 2 6 5 -6 7 118 131 137
139 9 3 14 -10 17 -46 l3 -51 -124 -126 c-68 -69 -121 -120 -116 -112 5 9 4
12 -3 7 -7 -4 -12 -12 -12 -18 0 -6 -11 -21 -25 -34 -14 -13 -25 -33 -25 -44
0 -14 52 -73 150 -172 l150 -151 0 -54 c0 -48 -2 -53 -17 -44 -10 5 -37 29
-60 53 -22 24 -50 52 -60 63 -29 29 -145 138 -164 153 -17 13 -53 6 -44 -8 3
-5 1 -11 -5 -15 -6 -4 -10 -75 -10 -186 l0 -179 -37 0 -38 0 0 540 0 540 38 0
37 0 0 -185z"/>
<path d="M4006 768 c3 -5 10 -6 15 -3 13 9 11 12 -6 12 -8 0 -12 -4 -9 -9z"/>
<path d="M216 1098 c3 -5 10 -6 15 -3 13 9 11 12 -6 12 -8 0 -12 -4 -9 -9z"/>
<path d="M2234 1022 c4 -3 14 -7 22 -8 9 -1 13 0 10 4 -4 3 -14 7 -22 8 -9 1
-13 0 -10 -4z"/>
<path d="M1305 941 c-3 -5 -2 -12 3 -15 5 -3 9 1 9 9 0 17 -3 19 -12 6z"/>
<path d="M1343 935 c0 -8 4 -12 9 -9 5 3 6 10 3 15 -9 13 -12 11 -12 -6z"/>
<path d="M360 937 c0 -2 6 -10 14 -16 11 -9 16 -9 22 1 4 7 4 10 -1 6 -4 -4
-14 -3 -22 3 -7 6 -13 9 -13 6z"/>
<path d="M1083 675 c0 -8 4 -12 9 -9 5 3 6 10 3 15 -9 13 -12 11 -12 -6z"/>
<path d="M1016 402 c-3 -5 1 -9 9 -9 8 0 12 4 9 9 -3 4 -7 8 -9 8 -2 0 -6 -4
-9 -8z"/>
<path d="M746 242 c-3 -5 1 -9 9 -9 8 0 12 4 9 9 -3 4 -7 8 -9 8 -2 0 -6 -4
-9 -8z"/>
<path d="M880 96 c0 -2 8 -10 18 -17 15 -13 16 -12 3 4 -13 16 -21 21 -21 13z"/>
</g>
</svg>
