<svg width="206" height="30" viewBox="0 0 206 30" fill="none" xmlns="http://www.w3.org/2000/svg">
<path fill-rule="evenodd" clip-rule="evenodd" d="M0 6.70734H3.37274L8.94614 19.6297L14.5674 6.70734H17.677L10.3814 23.4585H7.31957L0 6.70734Z" fill="white"/>
<path fill-rule="evenodd" clip-rule="evenodd" d="M19.0401 23.4585H22.0301V10.6798H19.0401V23.4585ZM20.5471 8.57392C20.0047 8.57392 19.5502 8.40251 19.1836 8.05941C18.8168 7.71631 18.6335 7.28976 18.6335 6.77915C18.6335 6.26883 18.8168 5.84198 19.1836 5.49888C19.5502 5.15607 20.0047 4.98438 20.5471 4.98438C21.0892 4.98438 21.5437 5.148 21.9105 5.47495C22.2771 5.80189 22.4607 6.21319 22.4607 6.70735C22.4607 7.23382 22.2813 7.67653 21.9225 8.03548C21.5637 8.39444 21.105 8.57392 20.5471 8.57392Z" fill="white"/>
<path fill-rule="evenodd" clip-rule="evenodd" d="M29.6604 23.6258C28.6238 23.6258 27.6111 23.4902 26.6226 23.2192C25.6338 22.9482 24.8441 22.6051 24.2545 22.1902L25.4026 19.9169C25.9767 20.2997 26.6662 20.6072 27.4717 20.8382C28.2766 21.0697 29.0702 21.1849 29.8518 21.1849C31.6377 21.1849 32.5308 20.7146 32.5308 19.7736C32.5308 19.3267 32.3036 19.0156 31.8491 18.8397C31.3946 18.6644 30.6651 18.4969 29.6604 18.3375C28.6079 18.1783 27.7507 17.9944 27.089 17.7871C26.427 17.5801 25.8529 17.2169 25.3667 16.6979C24.88 16.1798 24.6372 15.4581 24.6372 14.5325C24.6372 13.3202 25.1431 12.3513 26.1561 11.625C27.1685 10.8993 28.5362 10.5362 30.2584 10.5362C31.1351 10.5362 32.0124 10.6361 32.8896 10.8353C33.7666 11.0348 34.4842 11.302 35.0425 11.637L33.8943 13.9104C32.8098 13.2723 31.5896 12.9532 30.2345 12.9532C29.3572 12.9532 28.6916 13.0848 28.2372 13.348C27.7827 13.6112 27.5554 13.9582 27.5554 14.3893C27.5554 14.8676 27.7985 15.2065 28.285 15.406C28.7712 15.6055 29.5247 15.7931 30.5455 15.9684C31.5657 16.1278 32.4032 16.3115 33.0571 16.5188C33.7107 16.7261 34.2728 17.0772 34.7435 17.5714C35.2138 18.0662 35.4491 18.7679 35.4491 19.6776C35.4491 20.8741 34.9306 21.831 33.8943 22.5492C32.8576 23.2671 31.4461 23.6258 29.6604 23.6258Z" fill="white"/>
<path fill-rule="evenodd" clip-rule="evenodd" d="M37.7933 23.4585H40.7833V10.6798H37.7933V23.4585ZM39.3006 8.57392C38.7582 8.57392 38.3037 8.40251 37.9368 8.05941C37.57 7.71631 37.387 7.28976 37.387 6.77915C37.387 6.26883 37.57 5.84198 37.9368 5.49888C38.3037 5.15607 38.7582 4.98438 39.3006 4.98438C39.8424 4.98438 40.2969 5.148 40.664 5.47495C41.0306 5.80189 41.2139 6.21319 41.2139 6.70735C41.2139 7.23382 41.0345 7.67653 40.676 8.03548C40.3169 8.39444 39.8585 8.57392 39.3006 8.57392Z" fill="white"/>
<path fill-rule="evenodd" clip-rule="evenodd" d="M42.7684 13.1685V10.7755H44.8733V7.85602H47.8634V10.7755H51.284V13.1685H47.8634V19.2468C47.8634 20.5232 48.4533 21.1609 49.6335 21.1609C50.3032 21.1609 50.8615 20.9857 51.3079 20.6345L52.1454 22.7649C51.7943 23.0517 51.3677 23.2671 50.8653 23.4107C50.363 23.554 49.8329 23.6258 49.2747 23.6258C47.8714 23.6258 46.787 23.2593 46.0215 22.5253C45.2561 21.7918 44.8733 20.7224 44.8733 19.3186V13.1685H42.7684Z" fill="white"/>
<path fill-rule="evenodd" clip-rule="evenodd" d="M61.8327 20.8262C63.0607 20.8262 64.1413 20.5908 65.0739 20.1203C66.0068 19.6497 66.7244 18.9797 67.2267 18.1101C67.7293 17.2408 67.9802 16.2316 67.9802 15.0829C67.9802 13.9343 67.7293 12.9253 67.2267 12.0558C66.7244 11.1862 66.0068 10.5164 65.0739 10.0456C64.1413 9.57508 63.0607 9.33967 61.8327 9.33967H57.7663V20.8262H61.8327ZM54.6567 6.70734H61.9762C63.7622 6.70734 65.349 7.05433 66.7364 7.7483C68.1237 8.44228 69.2004 9.42342 69.9659 10.6917C70.731 11.96 71.1138 13.4237 71.1138 15.0829C71.1138 16.7425 70.731 18.2058 69.9659 19.4744C69.2004 20.7424 68.1237 21.7236 66.7364 22.4176C65.349 23.1115 63.7622 23.4585 61.9762 23.4585H54.6567V6.70734Z" fill="white"/>
<path fill-rule="evenodd" clip-rule="evenodd" d="M79.438 12.9292C78.4812 12.9292 77.6715 13.2125 77.0101 13.7787C76.3481 14.3453 75.9457 15.0991 75.8022 16.0402H83.05C82.922 15.115 82.5315 14.365 81.8776 13.7907C81.2237 13.2164 80.4104 12.9292 79.438 12.9292ZM85.8965 17.1409C85.8965 17.3482 85.8803 17.6432 85.8486 18.0264H75.8261C76.0013 18.9677 76.46 19.7132 77.2015 20.2635C77.943 20.8142 78.8639 21.0894 79.9643 21.0894C81.3672 21.0894 82.5237 20.627 83.4327 19.7015L85.0353 21.5441C84.4613 22.23 83.7353 22.749 82.8586 23.0996C81.9813 23.4505 80.9928 23.6258 79.8925 23.6258C78.489 23.6258 77.2529 23.3473 76.1849 22.7885C75.1163 22.23 74.291 21.4526 73.7091 20.4553C73.1267 19.4586 72.8361 18.3294 72.8361 17.0692C72.8361 15.8245 73.1189 14.7039 73.6852 13.707C74.2509 12.71 75.0367 11.9322 76.0411 11.3738C77.046 10.8156 78.178 10.5362 79.438 10.5362C80.6816 10.5362 81.7942 10.8114 82.7746 11.3618C83.7556 11.9122 84.5211 12.686 85.0712 13.683C85.6211 14.68 85.8965 15.8329 85.8965 17.1409Z" fill="white"/>
<path fill-rule="evenodd" clip-rule="evenodd" d="M88.5273 23.4585V10.6798H91.3738V12.331C92.3785 11.1344 93.8454 10.5362 95.7752 10.5362C96.5884 10.5362 97.3219 10.6558 97.9758 10.8951C98.6294 11.1345 99.1877 11.4853 99.6502 11.9481C100.112 12.4108 100.472 12.9932 100.727 13.695C100.982 14.3973 101.109 15.211 101.109 16.1359V23.4585H98.1193V16.5188C98.1193 15.4021 97.8562 14.5607 97.33 13.9941C96.8037 13.4279 96.0541 13.1446 95.0815 13.1446C93.9811 13.1446 93.1119 13.4757 92.4742 14.1377C91.8364 14.8 91.5174 15.753 91.5174 16.9971V23.4585H88.5273Z" fill="white"/>
<path fill-rule="evenodd" clip-rule="evenodd" d="M107.52 10.6798V12.307C107.998 11.7327 108.596 11.2942 109.314 10.9909C110.032 10.6879 110.829 10.5362 111.706 10.5362C112.663 10.5362 113.512 10.7121 114.253 11.0627C114.995 11.4138 115.581 11.9481 116.012 12.666C116.538 11.9959 117.216 11.4734 118.045 11.0986C118.874 10.724 119.791 10.5362 120.796 10.5362C122.406 10.5362 123.682 11.0028 124.623 11.9361C125.564 12.8694 126.034 14.2693 126.034 16.1359V23.4585H123.044V16.5188C123.044 15.4021 122.797 14.5607 122.303 13.9941C121.808 13.4279 121.099 13.1446 120.174 13.1446C119.169 13.1446 118.364 13.4718 117.758 14.1257C117.152 14.7799 116.849 15.7291 116.849 16.9731V23.4585H113.859V16.5188C113.859 15.4021 113.612 14.5607 113.117 13.9941C112.623 13.4279 111.913 13.1446 110.988 13.1446C109.968 13.1446 109.158 13.4718 108.56 14.1257C107.962 14.7799 107.663 15.7291 107.663 16.9731V23.4585H104.673V10.6798H107.52Z" fill="white"/>
<path fill-rule="evenodd" clip-rule="evenodd" d="M131.655 19.6776C131.655 20.2202 131.87 20.6509 132.301 20.9701C132.732 21.289 133.33 21.4484 134.095 21.4484C134.86 21.4484 135.53 21.2773 136.104 20.9336C136.678 20.5908 137.085 20.1005 137.324 19.4622V17.9788H134.239C132.516 17.9788 131.655 18.5448 131.655 19.6776ZM134.023 15.9923H137.324V15.8006C137.324 14.8915 137.057 14.2017 136.523 13.7309C135.989 13.2607 135.195 13.0249 134.143 13.0249C133.425 13.0249 132.72 13.1368 132.026 13.36C131.332 13.5834 130.746 13.8945 130.268 14.2932L129.096 12.1156C129.765 11.605 130.571 11.2143 131.512 10.943C132.452 10.672 133.449 10.5362 134.502 10.5362C136.383 10.5362 137.822 10.9831 138.819 11.8763C139.815 12.7698 140.314 14.1338 140.314 15.9684V23.4585H137.492V21.9031C136.742 23.0517 135.403 23.6258 133.473 23.6258C132.755 23.6258 132.102 23.5303 131.512 23.3389C130.921 23.1474 130.419 22.8842 130.005 22.5492C129.59 22.2142 129.271 21.8112 129.048 21.3407C128.824 20.8705 128.713 20.356 128.713 19.7972C128.713 18.6486 129.139 17.7272 129.993 17.0333C130.845 16.3393 132.189 15.9923 134.023 15.9923Z" fill="white"/>
<path fill-rule="evenodd" clip-rule="evenodd" d="M146.749 12.5463C147.61 11.2062 149.125 10.5362 151.294 10.5362V13.3839C151.038 13.336 150.807 13.3121 150.6 13.3121C149.436 13.3121 148.527 13.6513 147.873 14.3288C147.219 15.0073 146.892 15.9845 146.892 17.2606V23.4585H143.902V10.6798H146.749V12.5463Z" fill="white"/>
<path fill-rule="evenodd" clip-rule="evenodd" d="M153.59 23.4585V5.70227H156.58V16.4227L162.776 10.6798H166.364L161.029 16.0401L166.866 23.4585H163.23L158.805 17.9788L156.58 20.0844V23.4585H153.59Z" fill="white"/>
<path fill-rule="evenodd" clip-rule="evenodd" d="M188.298 28.7531C187.872 28.7531 187.552 28.6167 187.448 28.5718C185.974 27.9051 184.655 27.2252 183.484 26.5327C182.132 25.7292 181.086 24.9593 181.043 24.927C178.395 23.0287 176.33 20.8795 174.925 18.5543C173.951 16.9851 173.355 15.1715 173.33 15.0946C171.701 10.3116 174.049 5.13424 178.685 3.33199C181.203 2.35564 184.08 2.61289 186.469 4.01161L186.513 4.03853C186.586 4.0843 186.899 4.28262 187.308 4.58833C189.29 1.77174 192.497 0 195.888 0C197.106 0 198.299 0.223449 199.437 0.664663C202.003 1.65568 204.027 3.62514 205.134 6.2102C206.243 8.79856 206.288 11.6878 205.261 14.3459C205.261 14.3459 205.005 15.01 204.915 15.2229C204.811 15.4823 204.24 16.8577 203.06 18.624C200.246 22.6096 195.579 25.9404 189.163 28.562C188.893 28.6852 188.59 28.7531 188.298 28.7531Z" fill="white"/>
<path fill-rule="evenodd" clip-rule="evenodd" d="M184.858 22.869L184.415 25.1426C185.512 25.7921 186.759 26.4376 188.159 27.0714C188.197 27.0879 188.242 27.1085 188.298 27.1085C188.337 27.1085 188.401 27.087 188.42 27.0744C195.92 24.0194 199.627 20.5014 201.541 17.7919H185.842L184.858 22.869ZM185.546 5.7723C183.68 4.67958 181.438 4.40797 179.347 5.21921C175.688 6.64156 173.744 10.8276 175.067 14.712H183.832L184.947 8.88473L185.546 5.7723ZM198.778 2.55248C194.479 0.886333 189.586 3.19501 187.781 7.70766L187.281 10.2945L186.433 14.712H203.224C203.372 14.3663 203.481 14.0465 203.557 13.8703C205.333 9.2721 203.101 4.22251 198.778 2.55248ZM182.128 23.6392L182.531 21.4574L183.241 17.7919H176.488C177.472 19.42 179.161 21.5115 182.128 23.6392Z" fill="#D22431"/>
<path fill-rule="evenodd" clip-rule="evenodd" d="M177.898 14.712H175.067C174.786 13.8849 174.652 13.0444 174.651 12.2197C174.649 9.17067 176.467 6.33882 179.347 5.21919C180.169 4.90002 181.015 4.74866 181.852 4.74866C183.143 4.74866 184.414 5.10941 185.546 5.77227L184.947 8.88471C184.41 8.70852 183.84 8.61639 183.263 8.61639C182.402 8.61639 181.526 8.82189 180.725 9.25981C178.761 10.343 177.689 12.5272 177.898 14.712Z" fill="#9F2430"/>
<path fill-rule="evenodd" clip-rule="evenodd" d="M182.128 23.6392C179.161 21.5115 177.472 19.42 176.488 17.7919H179.033C179.562 18.6991 180.586 20.056 182.531 21.4574L182.128 23.6392Z" fill="#9F2430"/>
<path fill-rule="evenodd" clip-rule="evenodd" d="M188.298 27.1085C188.242 27.1085 188.197 27.0879 188.159 27.0714C186.759 26.4376 185.512 25.7921 184.415 25.1426L184.858 22.869C186.12 23.5309 187.662 24.1612 189.487 24.7152C189.513 24.7251 189.539 24.7328 189.567 24.7328C189.571 24.7328 189.575 24.7325 189.58 24.7322C189.613 24.7266 189.646 24.7143 189.673 24.6999C193.971 22.2435 196.378 19.817 197.753 17.7919H201.541C199.627 20.5014 195.92 24.0194 188.42 27.0744C188.401 27.087 188.337 27.1085 188.298 27.1085Z" fill="#9F2430"/>
<path fill-rule="evenodd" clip-rule="evenodd" d="M203.224 14.712H199.309C199.519 14.0695 199.613 13.596 199.677 13.2831C200.559 9.71958 198.382 6.17013 194.989 5.35141C194.513 5.23595 194.037 5.18031 193.566 5.18031C190.7 5.18031 188.056 7.24011 187.281 10.2945L187.781 7.70765C189.189 4.1896 192.472 2.01105 195.888 2.01105C196.854 2.01105 197.83 2.18544 198.778 2.55247C202.087 3.83094 204.172 7.09085 204.17 10.6122C204.169 11.6902 203.973 12.7925 203.557 13.8703C203.481 14.0465 203.372 14.3662 203.224 14.712Z" fill="#9F2430"/>
</svg>
